HIERARCHY
ROOT Hips
{
	OFFSET 48.993099 10.217591 55.507801
	CHANNELS 6 Xposition Yposition Zposition Xrotation Yrotation Zrotation
	JOINT spine
	{
		OFFSET 0.000000 -0.342408 5.954380
		CHANNELS 3 Xrotation Yrotation Zrotation
		JOINT spine1
		{
			OFFSET 0.000000 -0.000002 8.856018
			CHANNELS 3 Xrotation Yrotation Zrotation
			JOINT spine2
			{
				OFFSET 0.000000 -0.000001 8.485672
				CHANNELS 3 Xrotation Yrotation Zrotation
				JOINT Neck
				{
					OFFSET 0.000000 -1.038704 21.786301
					CHANNELS 3 Xrotation Yrotation Zrotation
					JOINT Head
					{
						OFFSET 0.000000 -0.000001 6.582199
						CHANNELS 3 Xrotation Yrotation Zrotation
						End Site
						{
							OFFSET 0.000000 5.254357 15.932602
						}
					}
				}
				JOINT RightShoulder
				{
					OFFSET -3.573071 0.497523 9.163857
					CHANNELS 3 Xrotation Yrotation Zrotation
					JOINT RightArm
					{
						OFFSET 0.000000 -0.000002 12.019203
						CHANNELS 3 Xrotation Yrotation Zrotation
						JOINT RightArmRoll
						{
							OFFSET 0.000000 -0.000001 6.067551
							CHANNELS 3 Xrotation Yrotation Zrotation
							JOINT RightForeArm
							{
								OFFSET 0.000000 -0.000003 17.672600
								CHANNELS 3 Xrotation Yrotation Zrotation
								JOINT RightForeArmRoll
								{
									OFFSET 0.000000 -0.000001 6.808716
									CHANNELS 3 Xrotation Yrotation Zrotation
									JOINT RightHand
									{
										OFFSET 0.000000 -0.000003 13.663605
										CHANNELS 3 Xrotation Yrotation Zrotation
										End Site
										{
											OFFSET 0.000000 0.000000 0.100006
										}
									}
								}
							}
						}
					}
				}
				JOINT LeftShoulder
				{
					OFFSET 3.573071 0.497523 9.163857
					CHANNELS 3 Xrotation Yrotation Zrotation
					JOINT LeftArm
					{
						OFFSET 0.000000 -0.000002 12.019203
						CHANNELS 3 Xrotation Yrotation Zrotation
						JOINT LeftArmRoll
						{
							OFFSET 0.000000 -0.000001 6.067543
							CHANNELS 3 Xrotation Yrotation Zrotation
							JOINT LeftForeArm
							{
								OFFSET 0.000000 -0.000003 17.672600
								CHANNELS 3 Xrotation Yrotation Zrotation
								JOINT LeftForeArmRoll
								{
									OFFSET 0.000000 -0.000001 6.808723
									CHANNELS 3 Xrotation Yrotation Zrotation
									JOINT LeftHand
									{
										OFFSET 0.000000 -0.000003 13.663605
										CHANNELS 3 Xrotation Yrotation Zrotation
										End Site
										{
											OFFSET 0.000000 0.000000 0.100006
										}
									}
								}
							}
						}
					}
				}
			}
		}
	}
	JOINT RightUpLeg
	{
		OFFSET -5.277740 0.811858 -0.967796
		CHANNELS 3 Xrotation Yrotation Zrotation
		JOINT RightUpLegRoll
		{
			OFFSET 0.000000 -0.000003 16.021397
			CHANNELS 3 Xrotation Yrotation Zrotation
			JOINT RightLeg
			{
				OFFSET 0.000000 0.000003 -19.840099
				CHANNELS 3 Xrotation Yrotation Zrotation
				JOINT RightLegRoll
				{
					OFFSET 0.000000 -0.000003 19.905003
					CHANNELS 3 Xrotation Yrotation Zrotation
					JOINT RightFoot
					{
						OFFSET 0.000000 -0.000003 16.567497
						CHANNELS 3 Xrotation Yrotation Zrotation
						JOINT RightToeBase
						{
							OFFSET 0.000000 -0.000002 13.849602
							CHANNELS 3 Xrotation Yrotation Zrotation
							End Site
							{
								OFFSET 0.005871 0.773116 6.707283
							}
						}
					}
				}
			}
		}
	}
	JOINT LeftUpLeg
	{
		OFFSET 5.277740 0.811858 -0.967796
		CHANNELS 3 Xrotation Yrotation Zrotation
		JOINT LeftUpLegRoll
		{
			OFFSET 0.000000 -0.000003 16.021503
			CHANNELS 3 Xrotation Yrotation Zrotation
			JOINT LeftLeg
			{
				OFFSET 0.000000 -0.000003 19.839996
				CHANNELS 3 Xrotation Yrotation Zrotation
				JOINT LeftLegRoll
				{
					OFFSET 0.000000 -0.000004 20.089005
					CHANNELS 3 Xrotation Yrotation Zrotation
					JOINT LeftFoot
					{
						OFFSET 0.000000 -0.000003 16.383499
						CHANNELS 3 Xrotation Yrotation Zrotation
						JOINT LeftToeBase
						{
							OFFSET 0.000000 -0.000002 13.849594
							CHANNELS 3 Xrotation Yrotation Zrotation
							End Site
							{
								OFFSET -0.026310 0.773116 6.707275
							}
						}
					}
				}
			}
		}
	}
}
MOTION
Frames: 8
Frame Time: 0.041667
47.697201 10.370892 55.020599 7.090749 7.049815 5.554539 0.285612 -1.398573 0.123489 4.578006 -2.794381 0.269210 6.223889 -2.790949 0.301946 29.145104 2.057718 -3.788043 13.103328 -2.423444 -3.301885 5.658212 -69.523457 5.086189 -55.909842 -114.129729 -62.661241 -0.000001 0.000008 -0.000000 26.833083 3.593823 -3.048304 0.000006 0.000005 -3.000011 -5.000173 -7.999899 0.000012 -12.097196 58.787841 14.241103 -51.339680 133.165302 66.552216 -0.000000 -0.000000 0.000000 -0.027664 -3.640311 1.990814 -0.000000 -0.000001 3.011600 -5.000173 7.999909 -0.000008 -91.220885 -183.964670 -1.245648 -179.999991 0.000006 -0.873990 107.727868 2.600290 -1.981590 -0.000003 -0.000001 1.615260 70.634012 6.977913 1.776460 25.456959 -7.355619 0.000000 -93.730385 180.269374 5.912120 -0.000004 -0.000005 -0.933515 -74.573870 -5.018978 -0.663116 -0.000005 0.000002 -1.491590 64.259396 -7.378289 -1.303943 25.456950 7.355613 0.000001 
47.750500 10.397991 54.974995 6.941995 7.063634 5.521188 0.292274 -1.402282 0.124348 4.591772 -2.801784 0.270993 6.237655 -2.798331 0.303819 29.159194 2.021434 -3.771512 13.108200 -2.389274 -3.292536 5.735819 -69.580448 5.163595 -56.040695 -114.092805 -62.730739 -0.000001 0.000007 0.000003 26.834589 3.593774 -3.048316 0.000007 0.000005 -3.000009 -5.000173 -7.999900 0.000013 -12.145869 58.761866 14.297931 -51.290175 133.172187 66.537285 -0.000001 0.000000 -0.000001 -0.027661 -3.640271 1.990813 -0.000000 -0.000002 3.011601 -5.000174 7.999910 -0.000010 -91.104103 -184.012509 -1.216721 -179.999991 0.000006 -0.877992 107.736296 2.599313 -1.982619 -0.000003 -0.000000 1.615051 70.632161 6.978102 1.776412 25.456957 -7.355618 -0.000001 -93.621628 180.231193 5.943638 -0.000005 -0.000004 -0.937238 -74.645614 -5.043681 -0.679781 -0.000005 0.000002 -1.494379 64.253010 -7.379786 -1.301118 25.456948 7.355609 0.000001 
47.742699 10.405993 54.976898 6.785481 7.082122 5.482368 0.301041 -1.406671 0.125381 4.609628 -2.810524 0.273204 6.255524 -2.807034 0.306148 29.166977 1.989799 -3.752454 13.118099 -2.356580 -3.280265 5.827839 -69.638539 5.256750 -56.182339 -114.060218 -62.811308 -0.000001 0.000007 0.000001 26.828672 3.593777 -3.048120 0.000005 0.000005 -3.000008 -5.000173 -7.999900 0.000013 -12.208364 58.734866 14.371131 -51.245178 133.184195 66.525592 -0.000000 -0.000000 -0.000000 -0.027660 -3.640271 1.990813 -0.000000 -0.000003 3.011598 -5.000173 7.999909 -0.000010 -90.977724 -184.069391 -1.183469 -179.999991 0.000005 -0.881995 107.746658 2.598291 -1.981715 -0.000003 -0.000001 1.614870 70.629559 6.978289 1.776307 25.456959 -7.355618 0.000001 -93.505932 180.184598 5.979974 -0.000004 -0.000005 -0.941065 -74.718554 -5.070327 -0.697170 -0.000005 0.000001 -1.497360 64.247785 -7.381307 -1.298122 25.456948 7.355612 0.000000 
47.711601 10.414492 54.997799 6.622244 7.104103 5.438895 0.311563 -1.411540 0.126577 4.630942 -2.820198 0.275784 6.276844 -2.816681 0.308869 29.170065 1.963019 -3.731260 13.131711 -2.326023 -3.265286 5.933104 -69.696753 5.364478 -56.327604 -114.031169 -62.894643 -0.000001 0.000007 0.000000 26.817947 3.593783 -3.047815 0.000007 0.000004 -3.000010 -5.000173 -7.999901 0.000009 -12.282938 58.707470 14.458652 -51.205839 133.199726 66.518441 -0.000001 0.000000 -0.000001 -0.027661 -3.640260 1.990811 0.000001 -0.000001 3.011597 -5.000174 7.999911 -0.000011 -90.843606 -184.133950 -1.146250 -179.999991 0.000004 -0.885985 107.758385 2.596840 -1.981750 -0.000002 -0.000001 1.614770 70.626239 6.978537 1.776156 25.456960 -7.355617 0.000002 -93.383856 180.130871 6.020189 -0.000005 -0.000004 -0.944991 -74.792498 -5.098593 -0.715122 -0.000005 0.000001 -1.500491 64.243530 -7.382944 -1.294787 25.456952 7.355612 0.000000 
47.734901 10.433891 54.971100 6.452911 7.129541 5.391234 0.323694 -1.416857 0.127917 4.655414 -2.830785 0.278705 6.301319 -2.827233 0.311951 29.168729 1.940429 -3.708113 13.148756 -2.297220 -3.247898 6.050307 -69.755308 5.485305 -56.480559 -114.004818 -62.985327 -0.000001 0.000007 0.000000 26.802012 3.593814 -3.047357 0.000005 0.000004 -3.000011 -5.000174 -7.999898 0.000012 -12.368340 58.679371 14.558992 -51.169960 133.219698 66.513352 -0.000001 0.000000 0.000001 -0.027661 -3.640259 1.990813 0.000000 -0.000001 3.011600 -5.000173 7.999911 -0.000009 -90.702405 -184.205557 -1.104912 -179.999991 0.000006 -0.889987 107.771397 2.594944 -1.982751 -0.000002 -0.000000 1.614741 70.622380 6.978785 1.776141 25.456959 -7.355618 0.000001 -93.256227 180.070629 6.064090 -0.000005 -0.000005 -0.949010 -74.867343 -5.128426 -0.733842 -0.000006 0.000002 -1.503749 64.240012 -7.384620 -1.291310 25.456950 7.355613 -0.000000 
47.778000 10.456391 54.941700 6.278116 7.158369 5.339847 0.337272 -1.422635 0.129391 4.682724 -2.842257 0.281937 6.328637 -2.838664 0.315363 29.163470 1.921354 -3.683235 13.168921 -2.269785 -3.228411 6.178155 -69.814451 5.617753 -56.641195 -113.981172 -63.083511 -0.000001 0.000007 0.000001 26.780659 3.593872 -3.046748 0.000004 0.000005 -3.000010 -5.000175 -7.999897 0.000012 -12.463318 58.650363 14.670697 -51.136800 133.243617 66.509985 -0.000000 0.000001 0.000001 -0.027663 -3.640249 1.990814 0.000000 -0.000001 3.011598 -5.000173 7.999910 -0.000010 -90.554750 -184.283708 -1.061649 -179.999991 0.000005 -0.894987 107.785535 2.592888 -1.983768 -0.000001 -0.000001 1.614758 70.618016 6.979095 1.776067 25.456957 -7.355618 0.000000 -93.123482 180.004404 6.111665 -0.000005 -0.000004 -0.953112 -74.943069 -5.159691 -0.753252 -0.000005 0.000002 -1.507140 64.237239 -7.386329 -1.287590 25.456950 7.355613 0.000000 
47.781197 10.467392 54.944798 6.098481 7.190523 5.285213 0.352136 -1.428832 0.130981 4.712570 -2.854594 0.285452 6.358490 -2.850963 0.319077 29.154666 1.905113 -3.656806 13.192089 -2.243338 -3.207086 6.315297 -69.874386 5.760308 -56.806130 -113.961604 -63.185575 -0.000001 0.000007 0.000003 26.753498 3.593970 -3.045953 0.000004 0.000004 -3.000013 -5.000173 -7.999899 0.000013 -12.566595 58.620146 14.792247 -51.106498 133.270474 66.509172 0.000001 -0.000000 0.000001 -0.027661 -3.640251 1.990814 0.000000 -0.000003 3.011601 -5.000172 7.999910 -0.000011 -90.401276 -184.367747 -1.015295 -179.999991 0.000005 -0.899985 107.800903 2.590687 -1.983780 -0.000002 -0.000001 1.614799 70.613214 6.979398 1.776021 25.456959 -7.355617 0.000001 -92.986236 179.932796 6.161742 -0.000005 -0.000005 -0.957289 -75.019649 -5.192308 -0.773268 -0.000005 0.000002 -1.510640 64.235108 -7.388102 -1.283742 25.456948 7.355613 0.000001 
47.811699 10.491290 54.937496 5.914631 7.225954 5.227795 0.368134 -1.435460 0.132677 4.744646 -2.867766 0.289224 6.390576 -2.864092 0.323061 29.142703 1.891040 -3.629035 13.217777 -2.217487 -3.184222 6.460407 -69.935168 5.911451 -56.979050 -113.945047 -63.295718 -0.000001 0.000008 0.000000 26.720316 3.594112 -3.044950 0.000003 0.000006 -3.000011 -5.000173 -7.999900 0.000011 -12.676943 58.588529 14.922191 -51.078473 133.299843 66.510606 -0.000001 -0.000000 0.000001 -0.027665 -3.640249 1.990816 0.000000 -0.000002 3.011599 -5.000173 7.999911 -0.000010 -90.242638 -184.457127 -0.966454 -179.999991 0.000005 -0.904985 107.817398 2.587704 -1.985687 -0.000003 -0.000002 1.614849 70.608194 6.979671 1.775984 25.456960 -7.355618 0.000001 -92.845261 179.856352 6.213930 -0.000005 -0.000005 -0.961533 -75.096967 -5.226147 -0.793798 -0.000005 0.000001 -1.514240 64.233408 -7.389901 -1.279771 25.456952 7.355614 -0.000000 
